<?xml version="1.0" encoding="utf-8"?>
<!-- Generator: Adobe Illustrator 26.4.1, SVG Export Plug-In . SVG Version: 6.00 Build 0)  -->
<svg version="1.1" id="Layer_1" xmlns="http://www.w3.org/2000/svg" xmlns:xlink="http://www.w3.org/1999/xlink" x="0px" y="0px"
	 viewBox="0 0 16 16" style="enable-background:new 0 0 16 16;" xml:space="preserve">
<style type="text/css">
	.st0{fill:#FFFFFF;}
</style>
<g>
	<path class="st0" d="M13.5,15.6H0c0-1.9,0.8-3.6,2-4.8c1.2-1.2,2.9-2,4.8-2c0.5,0,1,0,1.4,0.2c-0.5,0.3-0.7,0.9-0.7,1.5
		c0,1,0.8,1.9,1.9,1.9h0.9v0.9c0,1,0.8,1.9,1.9,1.9c0.5,0,1-0.2,1.3-0.6C13.5,14.9,13.5,15.2,13.5,15.6z"/>
	<path class="st0" d="M6.8,8.1L6.8,8.1c-2.1,0-3.8-1.7-3.8-3.8v0c0-2.1,1.7-3.8,3.8-3.8h0c2.1,0,3.8,1.7,3.8,3.8v0
		C10.6,6.4,8.9,8.1,6.8,8.1z"/>
	<g>
		<path class="st0" d="M16,10.5c0,0.6-0.5,1.2-1.2,1.2h-1.6v1.6c0,0.1,0,0.2,0,0.3c-0.1,0.5-0.6,0.8-1.1,0.8c-0.6,0-1.2-0.5-1.2-1.2
			v-1.6H9.3c-0.6,0-1.2-0.5-1.2-1.2c0-0.6,0.5-1.1,1.1-1.2c0,0,0,0,0,0h1.6V7.7c0-0.6,0.5-1.2,1.2-1.2c0.6,0,1.2,0.5,1.2,1.2v1.6
			h1.6C15.5,9.3,16,9.8,16,10.5z"/>
	</g>
</g>
</svg>
