<?xml version="1.0" encoding="utf-8"?>
<!-- Generator: Adobe Illustrator 26.4.1, SVG Export Plug-In . SVG Version: 6.00 Build 0)  -->
<svg version="1.1" id="Layer_1" xmlns="http://www.w3.org/2000/svg" xmlns:xlink="http://www.w3.org/1999/xlink" x="0px" y="0px"
	 viewBox="0 0 512 512" style="enable-background:new 0 0 512 512;" xml:space="preserve">
<style type="text/css">
	.st0{fill:#FFFFFF;stroke:#FFFFFF;stroke-width:2.8346;stroke-miterlimit:10;}
</style>
<g>
	<path class="st0" d="M477.1,363.1c-33.6-111.5-67.3-223-101.5-334.4c-2.2-7.2-8-14.4-14.1-19.2c-10.3-8.2-33.4-6.5-43.7,1.9
		c-1.9,1.6-3,5.9-2.4,8.4c0.5,1.9,4.3,4.4,6.5,4.3c4.5-0.2,8.9-1.9,13.3-3.1c14.7-4.2,22.7-0.2,27,14.2
		c33.5,110.5,67,221.1,100.5,331.6c4.2,13.8-0.2,22-14.1,26.2c-90.1,27.4-180.3,54.6-270.5,81.9c-16.3,4.9-23.3,0.9-28.4-15.8
		c-7.8-25.7-15.6-51.3-23.4-77c-5-16.3-9.7-32.6-15.1-48.7c-1-2.8-5.1-5.4-8.3-6.3c-1.4-0.4-5.1,3.6-5.9,6.1
		c-0.7,2.4,0.7,5.7,1.6,8.5c12.2,40.4,24.6,80.8,36.5,121.3c3.7,12.6,9.7,22.7,24.2,28.3c-2.7,0.9-3.3,1.3-4,1.3
		c-27.9,0.1-55.7,0.1-83.6,0.1c-18.7,0-24.1-5.4-24.1-23.8V180.4c2.4,2.2,3.2,4.6,3.9,7c11.8,38.8,23.4,77.7,35.6,116.4
		c1.1,3.6,6.6,8.6,9.4,8.3c6.7-0.8,6.4-6.5,4.6-12.3c-6-19-11.7-38.2-17.4-57.3c-5.4-17.8-10.7-35.7-16.8-56.1
		c13.4,14.8,27,20.3,43.3,13.2c16.4-7,21.3-20.8,21-37.6c-0.4-23.3,0.2-46.5-0.3-69.8c-0.2-7.3,2.4-10.1,9.2-12.1
		c48.9-14.5,97.7-29.5,146.5-44.3c3.1-1,6.9-1.3,9.1-3.3c2.2-2,4-6.1,3.4-8.8c-0.4-2-4.6-4.2-7.3-4.6c-2.7-0.4-5.6,1.3-8.5,2.2
		c-40.4,12.2-80.8,24.3-121.1,36.8c-6.3,1.9-9.5,1.1-13.7-4.4c-11.4-15-26.9-21.5-45.8-18.3c-18.8,3.2-32.7,13.9-37.1,32.1
		c-3.2,13.1-5.4,24.5-20.2,28.4c-1.9,0.5-3.4,2.9-5,4.7c-8.5,9.4-7.8,21.2-7.8,32.6c-0.1,112.4-0.1,224.9,0,337.3
		c0,24.9,12.8,37.4,37.6,37.4c81.9,0,163.8,0,245.8,0c13.8,0,27.5,0.3,41.3-0.1c15.6-0.4,29.8-12.7,30.5-26.7
		c0.2-3.2-3.5-6.6-5.4-9.9c-2.9,2.1-7.1,3.6-8.3,6.4c-5.7,12.8-8.3,15.2-21.9,15.2c-55.4,0.1-110.8,0-166.1,0
		c-2.3,0-4.6-0.5-6.8-0.8c0-0.5,0-1.1,0.1-1.6c64.6-19.6,129.2-39.2,194.7-59c0,6.3-0.9,11.4,0.3,16c0.9,3.3,4.7,5.9,7.1,8.7
		c2.5-2.9,6.1-5.4,7.3-8.8c1.3-3.9,0.7-8.5,0.3-12.7c-0.6-6,1.8-8.6,7.6-10.2c18.9-5.3,37.6-11.2,56.4-16.9
		C474.8,400.6,483.6,384.7,477.1,363.1z M77.7,83.7c0.1-16.2,8.9-28.2,23.2-32.8c14-4.5,27.4,0.2,36.8,13c-0.3,1.2-0.6,2.5-0.8,3.7
		c-5.4-1-11.3-1-16.1-3.3c-13.7-6.7-30,0.7-30.7,16.1c-1.1,24.8-0.7,49.7-0.2,74.6c0,2.9,4.7,5.7,7.3,8.5c2.5-3.2,7.1-6.3,7.2-9.6
		c0.7-20.6,0.4-41.2,0.4-61.8c0-2.6-0.7-5.6,0.2-7.8c1.2-2.8,3.8-4.9,5.8-7.3c1.9,2.5,5.1,4.9,5.5,7.6c0.9,5.8,0.3,11.8,0.3,17.7
		c0,20.9,0.1,41.9,0,62.8c-0.1,14-7.4,22.2-19.3,22.3c-11.9,0.1-19.5-8.3-19.5-22.1C77.5,138,77.5,110.9,77.7,83.7z M62.7,104.4V166
		c-0.6,0.2-1.3,0.4-2,0.6c-4.2-15.4-9.5-30.5-12.3-46.2C47.1,112.7,53,106.7,62.7,104.4z"/>
	<path class="st0" d="M251.4,214.9c-2.1,2.1-1.8,6.3-3.4,9.1c-1.8,3.1-3.9,7.1-6.8,8.3c-2.5,1-6.4-1.3-9.5-2.7
		c-3.8-1.7-7.2-4.2-10.9-6c-4.6-2.3-10.4-3.2-13.6-6.7c-2.2-2.4-1.8-8.5-0.4-12.1c0.6-1.7,6.5-1.8,10-1.7c5,0.2,10.5,3,14.8,1.6
		c4-1.3,8.8-6.1,9.6-10.1c1.1-6.1-2.9-11.3-9.8-12.5c-6.4-1.1-13-1.5-19.4-2.4c-10.4-1.4-17.2-7.2-20.6-17.1
		c-3.5-10.2-1.8-19.1,5.6-27.2c1.9-2.1,1.5-6.2,2.8-9c1.5-3.3,3.1-7.3,5.9-9.2c1.9-1.3,7.8-0.3,8.7,1.3c3.7,7.3,10.3,5.9,16.3,7.3
		c3.5,0.8,7.5,4,9,7.2c1,2.1-1.3,7-3.6,9c-2,1.8-6,1.4-9.1,1.9c0-0.3-0.1-0.5-0.1-0.7c-1.6,0-3.3-0.2-4.9,0
		c-6.2,1-13.5,1.7-13.8,9.7c-0.3,8.6,7.2,8.7,13.4,9.3c3.9,0.4,7.8,0.7,11.7,1.2c12.2,1.5,20.4,8.3,24.4,19.9
		C261.7,194.9,260.7,205.6,251.4,214.9z"/>
	<path class="st0" d="M380.3,273.4c-1.2,1.5-4.1,1.7-6.3,2.3c-66.6,20.2-133.2,40.5-199.8,60.7c-2.5,0.8-5,1.4-8.9,2.5
		c-1.8-1.6-5.3-3.2-6-5.6c-0.6-2.4,1.1-6.1,2.9-8.2c1.5-1.7,4.7-2,7.2-2.8c66.6-20.2,133.2-40.5,199.8-60.7c2.5-0.8,5.2-2.2,7.5-1.7
		c2.7,0.6,6.9,2.7,7.2,4.7C384.3,267.3,382.2,270.9,380.3,273.4z"/>
	<path class="st0" d="M368.2,232.5c-0.9,1.3-3.5,1.5-5.4,2.1c-67.5,20.5-135.1,41-202.6,61.5c-1.9,0.6-3.8,1-7.4,2
		c-1.8-1.7-5.4-3.6-6.1-6.2c-0.6-2.2,1.8-5.8,3.8-7.9c1.3-1.5,4.1-1.7,6.3-2.4c66.6-20.2,133.2-40.5,199.8-60.7
		c2.5-0.8,5.2-2.3,7.5-1.8c2.8,0.6,7,2.5,7.4,4.5C372.1,226.2,369.9,229.8,368.2,232.5z"/>
	<path class="st0" d="M405,354.8c-3.3,2.3-7.9,2.9-11.9,4.1c-64.4,19.5-128.8,39.1-193.3,58.6c-2.8,0.8-5.6,1.6-9.8,2.8
		c-1.8-1.6-5.7-3.3-5.9-5.5c-0.3-2.8,1.6-6.8,3.9-8.7c2.6-2.1,6.7-2.4,10.1-3.4c65.3-19.9,130.7-39.8,196-59.6
		c2.2-0.7,4.7-2.2,6.6-1.7c3.1,0.9,7.4,2.5,8.2,4.8C409.6,348.5,407.3,353.2,405,354.8z"/>
	<path class="st0" d="M393.7,313.6c-1.3,1.5-4,2-6.2,2.6c-67.5,20.5-135,41-202.6,61.4c-1.9,0.6-3.8,1-7.2,1.9
		c-1.6-1.3-5.4-3-5.8-5.2c-0.4-2.8,1.4-6.5,3.4-8.9c1.4-1.7,4.7-1.9,7.2-2.7c66.3-20.1,132.6-40.2,198.9-60.2c2.8-0.8,6-2.3,8.5-1.7
		c2.7,0.6,6,3,6.9,5.4C397.5,308.1,395.4,311.6,393.7,313.6z"/>
</g>
</svg>
