<?xml version="1.0" encoding="utf-8"?>
<!-- Generator: Adobe Illustrator 26.4.1, SVG Export Plug-In . SVG Version: 6.00 Build 0)  -->
<svg version="1.1" id="Layer_1" xmlns="http://www.w3.org/2000/svg" xmlns:xlink="http://www.w3.org/1999/xlink" x="0px" y="0px"
	 viewBox="0 0 512 512" style="enable-background:new 0 0 512 512;" xml:space="preserve">
<style type="text/css">
	.st0{fill:#FFFFFF;}
</style>
<path class="st0" d="M482.7,299.2c0,45.2,0.3,90.4-0.1,135.7c-0.3,33.5-21.4,60.7-52.8,69.2c-5,1.3-10.4,1.7-15.6,1.7
	c-57.7,0.1-115.3,0.1-173,0.1H72.7c-41.2,0-72.1-30.5-72.2-71.9c-0.2-84-0.1-168.1-0.1-252.1c0-27.9-0.1-55.8,0-83.7
	c0.2-42,31.7-73.5,73.8-73.7c62.2-0.2,124.3-0.1,186.5,0c18,0,29.1,9.5,29.1,24.4c-0.1,14.9-10.9,24-29.3,24
	c-59.9,0.1-119.8,0-179.8,0.1c-24.5,0-32.2,7.8-32.2,32.6c0,107,0,214,0,321c0,24.1,7.8,31.9,31.7,31.9h323.3c23.3,0,31-7.8,31-31.3
	c0-60.7,0-121.3,0-182c0-13.5,5.5-22.5,15.6-26.2c15.9-5.7,31.8,5,32.3,22.5C483.1,260.7,482.7,280,482.7,299.2z"/>
<path class="st0" d="M433.2,169.3c-1.4,1.6-3.5,4-5.8,6.4C368,235.1,308.7,294.6,249,353.8c-4.3,4.3-10.2,8-16,9.3
	c-25.3,5.7-50.8,10.6-76.3,15.4c-15,2.8-20.5-3.2-17.6-18.1c5-25.1,9.8-50.2,15.2-75.2c1.1-4.9,3.4-10.2,6.9-13.7
	c61.4-61.7,123-123.2,184.5-184.8c1-1,2.4-1.8,2.8-2.1C376.8,112.8,404.7,140.8,433.2,169.3z"/>
<path class="st0" d="M500.2,100.8c-11.6,15-26,27.9-38.6,41.2c-29-28.9-56.9-56.7-86.2-85.8c13.9-13,27.3-28,43.1-39.7
	c23.2-17.1,56.2-12.2,76.2,8.8C514.4,46,517.6,78.3,500.2,100.8z"/>
</svg>
