<?xml version="1.0" encoding="utf-8"?>
<!-- Generator: Adobe Illustrator 26.4.1, SVG Export Plug-In . SVG Version: 6.00 Build 0)  -->
<svg version="1.1" id="Layer_1" xmlns="http://www.w3.org/2000/svg" xmlns:xlink="http://www.w3.org/1999/xlink" x="0px" y="0px"
	 viewBox="0 0 512 512" style="enable-background:new 0 0 512 512;" xml:space="preserve">
<style type="text/css">
	.st0{fill:#FFFFFF;}
</style>
<path class="st0" d="M509.8,149.3H0V128C0,69.2,47.9,21.3,106.7,21.3h53.9c9.9,0,19.8,2.3,28.6,6.7l67.3,33.7
	c2.9,1.5,6.3,2.2,9.5,2.2h139.3C456.8,64,499.9,100.7,509.8,149.3L509.8,149.3z M512,192v192c0,58.8-47.9,106.7-106.7,106.7H106.7
	C47.9,490.7,0,442.8,0,384V192H512z M335.1,364.9c-8.3-8.3-21.8-8.3-30.2,0l-27.6,27.6V256c-0.1-27.9-42.6-27.9-42.7,0v136.5
	l-27.6-27.6c-19.8-19.6-49.8,10.4-30.2,30.2l34.4,34.4c24.6,24.6,64.7,24.6,89.3,0l34.4-34.4C343.4,386.8,343.4,373.3,335.1,364.9z"
	/>
</svg>
