<?xml version="1.0" encoding="utf-8"?>
<!-- Generator: Adobe Illustrator 26.4.1, SVG Export Plug-In . SVG Version: 6.00 Build 0)  -->
<svg version="1.1" id="Layer_1" xmlns="http://www.w3.org/2000/svg" xmlns:xlink="http://www.w3.org/1999/xlink" x="0px" y="0px"
	 viewBox="0 0 512 512" style="enable-background:new 0 0 512 512;" xml:space="preserve">
<style type="text/css">
	.st0{fill:#FFFFFF;}
</style>
<path class="st0" d="M388.5,316.6c0.1,18.3,0.2,36.7,0,55c-0.3,35.8-23.1,58.7-58.8,58.9c-25.3,0.1-50.6,0-77.6,0
	c0,8.1,0,15.6,0,23.1c-0.3,47-44.8,73-85.5,49.9c-36.7-20.9-73.3-42.3-109.9-63.4c-19.6-11.3-29.6-28-29.5-50.8
	c0.1-110.3-0.1-220.7,0.1-331c0.1-35,23.7-58.1,58.7-58.1C167.3,0,248.6,0,330,0.1c34.9,0,58.2,23.2,58.6,58.2
	c0.2,21.7,0.1,43.3,0,65c-0.1,13.8-6.8,21.3-18.3,21.3c-11.3-0.1-18.2-8-18.2-21.5c-0.1-21.7,0.1-43.4-0.1-65
	c-0.1-13.5-7.4-21.3-21-21.3c-70-0.2-140-0.1-210-0.1c-0.9,0-1.7,0.4-4.8,1.2c4.4,2.6,7.4,4.4,10.3,6.1
	c31.4,18.1,62.8,36.5,94.4,54.4c21.5,12.2,31.6,29.9,31.5,54.8c-0.4,76-0.1,152-0.1,228V394c28,0,54.4,0.3,80.7-0.1
	c11.6-0.2,18.9-8.2,19.1-20.1c0.2-19,0-38,0.1-57c0.1-13.8,7.5-22.6,18.7-22.3C381.6,294.7,388.5,303,388.5,316.6z"/>
<path class="st0" d="M478.9,228.6c-16.7,17.2-33.7,34.2-50.9,50.9c-7.9,7.7-18.9,7.4-26,0.2c-7.3-7.3-7.5-17.7,0.3-25.9
	c5.7-6,12.2-11.2,18.4-16.8c-0.4-1-0.8-2.1-1.3-3.1h-10.1c-39,0-78,0.1-116.9-0.1c-4.2,0-8.8-0.3-12.7-1.9
	c-7.6-2.9-11.4-9.3-11-17.3c0.5-8.3,4.9-14.5,13.4-16.6c3.8-1,7.9-1,11.9-1c38-0.1,76,0,113.9,0h10.9c0.5-0.9,0.9-1.8,1.4-2.7
	c-5.7-5.4-11.7-10.7-17.1-16.3c-8.3-8.6-8.5-19.2-1.1-26.7c7.3-7.4,18.5-7.4,26.7,0.7c16.9,16.6,33.6,33.3,50.2,50.2
	C486.8,210.1,486.9,220.4,478.9,228.6z"/>
</svg>
