<?xml version="1.0" encoding="utf-8"?>
<!-- Generator: Adobe Illustrator 26.4.1, SVG Export Plug-In . SVG Version: 6.00 Build 0)  -->
<svg version="1.1" id="Layer_1" xmlns="http://www.w3.org/2000/svg" xmlns:xlink="http://www.w3.org/1999/xlink" x="0px" y="0px"
	 viewBox="0 0 512 512" style="enable-background:new 0 0 512 512;" xml:space="preserve">
<style type="text/css">
	.st0{fill:#FFFFFF;}
</style>
<path class="st0" d="M271.4,0c-78.5,0.2-142.8,64.8-142.9,143.5c-0.1,78.9,64.9,143.8,143.8,143.6c79.2-0.2,143.7-65,143.4-144
	C415.4,64,350.6-0.2,271.4,0z M295.2,203.5c-4.9,2-7.6,4.4-9.9,9.6c-1.8,4.2-8.3,8.9-12.6,8.8c-4.8-0.1-9.8-5-14.3-8.3
	c-2.8-2.1-4.5-6-7.5-7.6c-6.7-3.5-10.3-8.4-9.5-15.9c0.9-8.2,6.2-12.5,14-13.2c6.9-0.6,14-0.4,21-0.3c6.7,0.1,12.7-1.3,12.5-9.3
	c-0.2-7.8-6.4-9.1-13-9c-4.7,0.1-9.3,0.1-14-0.1c-17.7-0.9-32.7-13.6-36-30.6c-3.5-18.1,4.9-35.7,21.2-43.2
	c5.5-2.5,9.9-4.5,12.1-11.4c1.2-3.8,8-8.2,12.1-8.1c4.7,0.1,9.6,4.5,13.8,7.7c3.6,2.7,6.6,6.2,9.6,9.6c3.4,3.7,6.4,7.8,8.1,9.8
	c0.2,11.1-5.6,17.5-14.1,18.1c-6.3,0.4-12.7,0.2-19,0.1c-7-0.1-14.5,0-14.4,9.4c0.1,9.6,8.1,8.7,14.8,8.8c5.7,0.1,11.4,0,16.9,1
	c17.8,3.3,30,16.9,31.8,34.9C320.6,180.8,311,197,295.2,203.5z"/>
<path class="st0" d="M473.2,352.6c-35.7,35.9-71.5,71.7-107.4,107.4c-13.1,13-29.2,19.7-47.6,19.8c-66.9,0.2-133.8,0.1-200.8,0.1
	c-1.9,0-3.9-0.3-6.6-0.4V369.9h21.5c3.6-7.1,6.2-13.6,9.9-19.5c11.7-18.4,28.6-28.6,50.6-28.8c33.6-0.3,67.3-0.4,100.9,0
	c18.3,0.2,31.9,13.9,32.2,31.4c0.3,17.7-13.5,32.1-32.2,32.7c-14.9,0.5-30,0.1-44.9,0.2c-11.7,0.1-18.6,5.7-18.6,14.8
	c0,9,7.2,15,18.6,15.1c16,0.2,32,0,47.9,0.1c15.1,0.1,27.8-5.1,38.5-15.9c23.2-23.5,46.4-46.8,69.9-69.9c19-18.7,46.4-20.3,66.2-4.2
	C482,334.4,482.8,342.9,473.2,352.6z"/>
<path class="st0" d="M80.3,494.3c0,12.2-5.5,17.5-17.7,17.6c-14.6,0.1-29.3,0.1-43.9,0c-13.3-0.1-18.4-5.4-18.5-19
	c-0.1-22.6,0-45.3,0-67.9c0-22.6,0-45.3,0-67.9c0-14.4,4.9-19.4,18.9-19.5c14.3-0.1,28.6-0.1,42.9,0c13.2,0.1,18.3,5.1,18.3,17.9
	C80.4,401.7,80.4,448,80.3,494.3z"/>
<path class="st0" d="M511.8,66.6c-1.8,2.1-4.5,7.4-8.8,10c-9.9,6-20.5,10.9-31.1,15.7c-8.5,4-16.5,1.2-20.4-6.4
	c-3.8-7.5-1.2-15.7,7.1-20.1c10.5-5.7,21.2-11.2,32.1-16C501.1,45.2,511.9,52.4,511.8,66.6z"/>
<path class="st0" d="M94.2,76.1C94,90,83.7,97.2,73.7,92.9c-11.6-5-22.9-10.8-33.9-16.9c-7.7-4.3-9.6-12.7-5.7-19.8
	c3.8-7,11.8-9.9,19.7-6.3c10.9,5,21.8,10.1,32,16.2C90,68.7,92.6,74,94.2,76.1z"/>
<path class="st0" d="M510.6,229.5c-3,7.5-11.2,11.5-19,8.1c-12.1-5.3-24.3-10.9-35.3-18.3c-3.8-2.6-6.2-11.4-5-16.2
	c1.2-4.8,7.9-8.2,11.6-11.7c5.9,2.3,9.4,3.4,12.7,5c9.5,4.7,19.2,9.1,28.4,14.4C511.1,214.9,513.8,221.5,510.6,229.5z"/>
<path class="st0" d="M90.6,216.5c-13.2,9.1-27.8,16.1-43.8,24.9c-5.2-4.9-11.8-8.3-13-13.1c-1.2-4.9,1.2-13.6,5.1-16.1
	c11.3-7.4,23.7-13.6,36.4-18.1c4.3-1.5,13.2,1.8,15.8,5.7C93.7,203.8,93.5,214.5,90.6,216.5z"/>
</svg>
