<?xml version="1.0" encoding="utf-8"?>
<!-- Generator: Adobe Illustrator 26.4.1, SVG Export Plug-In . SVG Version: 6.00 Build 0)  -->
<svg version="1.1" id="Layer_1" xmlns="http://www.w3.org/2000/svg" xmlns:xlink="http://www.w3.org/1999/xlink" x="0px" y="0px"
	 viewBox="0 0 512 512" style="enable-background:new 0 0 512 512;" xml:space="preserve">
<style type="text/css">
	.st0{fill:#FFFFFF;}
</style>
<g>
	<path class="st0" d="M102.3,171.5l1.7-0.4v-1.3L102.3,171.5z"/>
</g>
<g>
	<polygon class="st0" points="87,175.4 87,178.7 84.3,176 	"/>
	<polygon class="st0" points="104,169.8 104,171.1 102.3,171.5 	"/>
	<path class="st0" d="M463.4,110.2L370.2,17c-9.7-9.7-22.8-15.1-36.5-15.1H159.5c-40,0-72.5,32.5-72.5,72.5v9
		c-45,7.8-79.8,46.3-81.9,92.9C2.8,227.1,39,270.1,87,278.4v162c0,40,32.5,72.5,72.5,72.5H406c40,0,72.5-32.5,72.5-72.5V146.7
		C478.5,133,473.1,119.9,463.4,110.2z M104,245.9c-1.4,0-2.8,0-4.3-0.1c-4.4-0.3-8.7-1-12.8-2.1c-26.3-7.1-46.1-30.5-47.8-58.5
		c-2-31.8,18.9-59.1,47.8-67c5.4-1.5,11.1-2.3,17-2.3c1.4,0,2.8,0,4.3,0.1c4.4,0.3,8.7,1,12.8,2.1c26.3,7.1,46.1,30.5,47.8,58.5
		c2,31.8-18.9,59.1-47.8,67C115.6,245.1,109.9,245.9,104,245.9z M444.5,440.4c0,21.3-17.2,38.5-38.5,38.5H159.5
		c-21.3,0-38.5-17.2-38.5-38.5v-162c45-7.8,79.8-46.3,81.9-92.9c2.3-50.9-33.9-93.9-81.9-102.2v-9c0-21.3,17.2-38.5,38.5-38.5h160.3
		c13.6,0,26.6,5.4,36.2,15l73.6,73.6c9.6,9.6,15,22.6,15,36.2V440.4z"/>
	<path class="st0" d="M423.1,148.3c-0.2,9-7.6,16.3-16.6,16.3h-72c-9.2,0-16.6-7.5-16.6-16.6V73.3c0-9.3,7.6-17.3,17-17.1
		c9,0.2,16.3,7.6,16.3,16.6v58.5h54.9C415.4,131.4,423.3,139,423.1,148.3z"/>
</g>
<g>
	<polygon class="st0" points="87,175.4 87,178.7 84.3,176 	"/>
	<path class="st0" d="M146.5,175.4L121,200.9l-17,17l-0.9,0.9c-3.3,3.3-7.7,5-12,5c-1.4,0-2.7-0.2-4-0.5c-2.9-0.7-5.7-2.2-8-4.5
		l-25.6-25.6c-6.7-6.7-7-18-0.1-24.6c6.7-6.4,17.3-6.3,23.8,0.2l7.2,7.2l2.7,2.7l4,4l11.3-11.3l1.7-0.4v-1.3l17-17l1.1-1.1
		c6.7-6.7,18-7,24.6-0.1C153.2,158.2,153.1,168.8,146.5,175.4z"/>
	<polygon class="st0" points="104,169.8 104,171.1 102.3,171.5 	"/>
</g>
<path class="st0" d="M409.5,224.2c-0.2,9.3-7.7,16.7-17,16.7H222c-9.5,0-17.6-7.8-17.5-17.3c0.2-9.3,7.7-16.7,17-16.7H392
	C401.6,206.9,409.7,214.7,409.5,224.2z"/>
<path class="st0" d="M409.5,295.2c-0.2,9.2-7.7,16.7-17,16.7H222c-9.5,0-17.6-7.8-17.5-17.3c0.2-9.2,7.7-16.7,17-16.7H392
	C401.6,277.9,409.7,285.7,409.5,295.2z"/>
<path class="st0" d="M409.5,366.2c-0.2,9.2-7.7,16.7-17,16.7H222c-9.5,0-17.6-7.8-17.5-17.3c0.2-9.2,7.7-16.7,17-16.7H392
	C401.6,348.9,409.7,356.7,409.5,366.2z"/>
</svg>
