<?xml version="1.0" encoding="utf-8"?>
<!-- Generator: Adobe Illustrator 26.4.1, SVG Export Plug-In . SVG Version: 6.00 Build 0)  -->
<svg version="1.1" id="Layer_1" xmlns="http://www.w3.org/2000/svg" xmlns:xlink="http://www.w3.org/1999/xlink" x="0px" y="0px"
	 viewBox="0 0 16 16" style="enable-background:new 0 0 16 16;" xml:space="preserve">
<style type="text/css">
	.st0{fill-rule:evenodd;clip-rule:evenodd;fill:#FFFFFF;}
</style>
<path class="st0" d="M11.5,1.2c0.8-0.9,2.9,0.6,0,2.6C8.6,1.9,10.7,0.4,11.5,1.2z M9,5c0,1.7-1.3,3-3,3S3,6.7,3,5s1.3-3,3-3
	S9,3.3,9,5z M0,13c0,1,1,1,1,1h10c0,0,1,0,1-1s-1-4-6-4S0,12,0,13z M13.5,4.9c1.4-1.4,4.9,1.1,0,4.3C8.6,6,12.1,3.5,13.5,4.9
	L13.5,4.9z M15,2.2c0.6-0.6,1.9,0.4,0,1.7C13.1,2.6,14.4,1.6,15,2.2L15,2.2z"/>
</svg>
