<?xml version="1.0" encoding="utf-8"?>
<!-- Generator: Adobe Illustrator 26.4.1, SVG Export Plug-In . SVG Version: 6.00 Build 0)  -->
<svg version="1.1" id="Layer_1" xmlns="http://www.w3.org/2000/svg" xmlns:xlink="http://www.w3.org/1999/xlink" x="0px" y="0px"
	 viewBox="0 0 512 512" style="enable-background:new 0 0 512 512;" xml:space="preserve">
<style type="text/css">
	.st0{fill:#FFFFFF;}
</style>
<g>
	<path class="st0" d="M64.9,182.5c1.7,20.7,3.4,40.8,5.1,61c6.2,75.3,12.2,150.7,18.5,226c2.1,24.9,20.4,42.3,44.7,42.4
		c81.9,0.2,163.8,0.2,245.8,0c22.1-0.1,39.5-14.7,43.4-36.7c2.1-11.4,2.5-23.1,3.5-34.8c5.1-61,10.2-122.1,15.2-183.2
		c2-24.8,4-49.5,6-74.7H64.9z M181,433.3c0,7.8-1.4,14.6-10,17.6c-9,3.1-17.9-2-19.5-11.4c-0.5-2.6-0.4-5.3-0.4-8
		c0-66.3,0-132.6,0-198.9c0-2,0-4,0.1-6c0.9-9,6.4-14.4,14.7-14.5c8.3-0.1,14.3,5.3,14.8,14.2c0.5,8.6,0.2,17.3,0.3,26
		c0,26.7,0,53.3,0,80C181,366,181,399.6,181,433.3z M269.7,441.6c-3.7,4.3-9.3,9.3-14.3,9.5c-4.4,0.1-9.9-5.2-13.2-9.5
		c-2-2.6-1.1-7.7-1.2-11.7c0-19.8,0-39.6,0-59.4V331c0-18.4,0-36.7,0-55.1c0-15.3,0-30.6-0.1-45.9c0-8.5,2.5-15.1,11.5-17.4
		c8.3-2.1,16.4,3.1,17.8,11.5c0.6,3.2,0.5,6.6,0.5,10c0,65.3,0,130.6,0,195.9C270.9,433.9,271.8,439.1,269.7,441.6z M349.3,451.3
		c-8.3,2.1-16.2-3.1-17.9-11.5c-0.3-1.6-0.4-3.3-0.4-5c0-68.6-0.1-137.2,0-205.7c0-10.4,5.9-16.7,14.4-17
		c8.9-0.3,15.2,6.3,15.3,17.1c0.1,24.5,0.1,49,0.1,73.5c0,9.8,0,19.6,0,29.4c0,16.8,0,33.6,0,50.4c0,16.8,0,33.6,0.1,50.4
		C361,441.7,359,448.9,349.3,451.3z"/>
	<path class="st0" d="M480.8,106.5c-0.9-28.4-19.3-46.4-47.7-46.5c-26.3-0.1-52.6-0.2-78.9,0.1c-5.6,0.1-8.4-1.5-9.9-7
		c-2-7.4-4.5-14.6-7.1-21.8c-7.2-19.9-22.9-31.2-44-31.3C268.6,0,244,0,219.3,0.1c-21.7,0.1-37.6,11.4-44.8,31.7
		c-3.2,9.1-6.1,18.3-9.1,27.5c-1.8,0.4-2.4,0.6-3.1,0.6c-28.3,0.1-56.6,0-84.9,0.2C51.3,60.3,32.8,77.9,31.3,104
		c-0.4,7.6-0.2,15.3-0.2,23c0,19.9,3.1,23.1,23.2,23.1c45,0,89.9,0,134.8,0c90.6,0,181.1,0,271.7,0c14.9,0,19.9-4.8,20-19.5
		C481,122.5,481.1,114.5,480.8,106.5z M197,59.6c2.6-7.6,3.8-15.2,7.7-20.9c2.9-4.2,9.4-8.1,14.4-8.2c24.6-0.8,49.2-0.4,73.7-0.4
		c7.9,0,13.3,3.5,15.9,11.1c2,5.9,3.8,11.8,6,18.4H197z"/>
	<path class="st0" d="M360.9,302.7v29.4c0,16.8,0,33.6,0,50.4c0-16.8,0-33.6,0-50.4C360.9,322.3,360.9,312.5,360.9,302.7z"/>
</g>
</svg>
